<?xml version="1.0" encoding="utf-8"?>
<!-- Generator: Adobe Illustrator 16.0.0, SVG Export Plug-In . SVG Version: 6.00 Build 0)  -->
<!DOCTYPE svg PUBLIC "-//W3C//DTD SVG 1.1//EN" "http://www.w3.org/Graphics/SVG/1.1/DTD/svg11.dtd">
<svg version="1.1" id="Layer_1" xmlns="http://www.w3.org/2000/svg" xmlns:xlink="http://www.w3.org/1999/xlink" x="0px" y="0px"
	 width="57.084px" height="70.719px" viewBox="0 0 57.084 70.719" enable-background="new 0 0 57.084 70.719" xml:space="preserve">
<g>
	<path fill-rule="evenodd" clip-rule="evenodd" fill="none" stroke="#292929" stroke-miterlimit="22.4858" d="M56.583,0.5
		c-0.007,5.262-0.015,10.523-0.021,15.785c-0.001,0.292,0,0.584,0,0.941c-1.341,0-2.638,0-4.01,0c0-2.395,0-4.787,0-7.179
		c-0.052-0.021-0.104-0.042-0.155-0.063c-5.228,6.795-10.455,13.59-15.734,20.453c-3.71-4.347-7.381-8.648-11.109-13.017
		c-7.395,7.457-14.75,14.876-22.057,22.245c-0.926-0.947-1.833-1.877-2.794-2.861c8.249-8.323,16.626-16.774,25.065-25.29
		c3.574,4.186,7.128,8.349,10.732,12.572c4.198-5.458,8.365-10.875,12.531-16.292c-0.021-0.042-0.044-0.084-0.066-0.126
		c-1.86,0.701-3.721,1.403-5.642,2.128c-0.474-1.238-0.931-2.436-1.415-3.705c0.243-0.103,0.462-0.202,0.686-0.287
		c4.38-1.668,8.761-3.333,13.14-5.003c0.202-0.077,0.386-0.2,0.578-0.301C56.402,0.5,56.492,0.5,56.583,0.5z"/>
	
		<rect x="0.702" y="43.217" fill-rule="evenodd" clip-rule="evenodd" fill="none" stroke="#292929" stroke-miterlimit="22.4858" width="8.853" height="27"/>
	
		<rect x="17.228" y="30.527" transform="matrix(1 0.0042 -0.0042 1 0.2141 -0.0915)" fill-rule="evenodd" clip-rule="evenodd" fill="none" stroke="#292929" stroke-miterlimit="22.4858" width="8.852" height="39.672"/>
	
		<rect x="33.024" y="33.865" transform="matrix(1 0.0042 -0.0042 1 0.2185 -0.1565)" fill-rule="evenodd" clip-rule="evenodd" fill="none" stroke="#292929" stroke-miterlimit="22.4858" width="8.852" height="36.334"/>
</g>
</svg>
