<?xml version="1.0" encoding="utf-8"?>
<!-- Generator: Adobe Illustrator 16.0.0, SVG Export Plug-In . SVG Version: 6.00 Build 0)  -->
<!DOCTYPE svg PUBLIC "-//W3C//DTD SVG 1.1//EN" "http://www.w3.org/Graphics/SVG/1.1/DTD/svg11.dtd">
<svg version="1.1" id="Layer_1" xmlns="http://www.w3.org/2000/svg" xmlns:xlink="http://www.w3.org/1999/xlink" x="0px" y="0px"
	 width="65.826px" height="65.825px" viewBox="0 0 65.826 65.825" enable-background="new 0 0 65.826 65.825" xml:space="preserve">
<g>
	<g>
		<path fill="#292929" d="M22.741,54.787c-0.219,0-0.436-0.041-0.643-0.115l-2.923-1.063c-0.892-0.332-1.395-1.271-1.179-2.183
			l0.339-1.432c-0.697-0.514-1.353-1.104-1.943-1.76l-1.371,0.455c-0.88,0.291-1.888-0.145-2.275-0.973l-1.324-2.841
			c-0.396-0.844-0.088-1.859,0.709-2.362l1.246-0.764c-0.122-0.836-0.155-1.684-0.105-2.521l-1.266-0.64
			c-0.845-0.424-1.232-1.412-0.906-2.299l1.063-2.934c0.324-0.863,1.27-1.373,2.176-1.168l1.428,0.343
			c0.483-0.627,1.022-1.21,1.612-1.728l-0.473-1.427c-0.291-0.896,0.129-1.876,0.972-2.273l2.835-1.318
			c0.836-0.396,1.882-0.081,2.373,0.709l0.799,1.302c0.787-0.114,1.595-0.147,2.406-0.097l0.729-1.426
			c0.409-0.831,1.414-1.246,2.287-0.916l2.945,1.072c0.883,0.325,1.382,1.258,1.165,2.176l-0.383,1.583
			c0.666,0.509,1.264,1.066,1.796,1.672l1.568-0.523c0.896-0.291,1.885,0.149,2.269,0.973l1.321,2.841
			c0.398,0.848,0.1,1.866-0.703,2.367l-1.482,0.905c0.101,0.78,0.125,1.528,0.084,2.269l1.512,0.755
			c0.844,0.415,1.237,1.403,0.922,2.292l-1.076,2.94c-0.27,0.731-0.976,1.222-1.748,1.222c0,0,0,0-0.006,0
			c-0.137,0-0.277-0.018-0.418-0.05l-1.676-0.399c-0.421,0.565-0.91,1.098-1.447,1.595l0.537,1.608
			c0.307,0.893-0.115,1.867-0.972,2.264l-2.826,1.321c-0.836,0.394-1.883,0.084-2.374-0.703l-0.821-1.339
			c-0.77,0.121-1.57,0.166-2.382,0.141l-0.717,1.421C24.083,54.392,23.443,54.787,22.741,54.787z M16.732,47l0.232,0.268
			c0.674,0.789,1.438,1.481,2.275,2.061l0.299,0.207l-0.506,2.135c-0.096,0.39,0.125,0.795,0.506,0.934l2.923,1.062
			c0.393,0.147,0.805-0.035,0.989-0.384l1.031-2.047l0.348,0.02c0.972,0.066,1.927,0,2.827-0.169l0.363-0.071l1.205,1.96
			c0.207,0.338,0.643,0.473,1.02,0.3l2.826-1.321c0.366-0.167,0.541-0.582,0.416-0.964l-0.765-2.273l0.268-0.232
			c0.679-0.593,1.269-1.246,1.76-1.938l0.208-0.29l2.358,0.562c0.356,0.078,0.796-0.134,0.936-0.503l1.069-2.936
			c0.139-0.388-0.029-0.797-0.394-0.979l-2.165-1.078l0.039-0.365c0.082-0.883,0.049-1.777-0.1-2.722l-0.057-0.351l2.083-1.271
			c0.341-0.209,0.474-0.647,0.299-1.014l-1.321-2.839c-0.162-0.349-0.589-0.532-0.971-0.41l-2.254,0.75l-0.232-0.282
			c-0.596-0.732-1.311-1.395-2.122-1.979l-0.285-0.209l0.54-2.271c0.099-0.39-0.117-0.79-0.494-0.925l-2.945-1.074
			c-0.388-0.139-0.797,0.038-0.973,0.396l-1.049,2.06l-0.36-0.029c-0.958-0.084-1.929-0.044-2.846,0.113l-0.354,0.066l-1.18-1.907
			c-0.207-0.338-0.656-0.483-1.019-0.306l-2.83,1.319c-0.363,0.172-0.538,0.592-0.413,0.977l0.698,2.109l-0.282,0.232
			c-0.723,0.59-1.365,1.279-1.911,2.052l-0.213,0.291l-2.115-0.507c-0.387-0.099-0.796,0.128-0.936,0.498l-1.063,2.936
			c-0.142,0.38,0.025,0.802,0.39,0.979l1.903,0.961l-0.033,0.362c-0.083,0.983-0.044,1.988,0.122,2.969l0.062,0.354l-1.845,1.135
			c-0.339,0.214-0.476,0.655-0.31,1.013l1.324,2.841c0.166,0.349,0.598,0.549,0.973,0.413L16.732,47z M25.587,45.707
			c-2.21,0-4.245-1.287-5.174-3.288c-1.33-2.851-0.1-6.254,2.745-7.585c0.761-0.354,1.575-0.531,2.408-0.531
			c2.214,0,4.25,1.289,5.183,3.297c1.327,2.85,0.08,6.247-2.769,7.576C27.222,45.532,26.417,45.707,25.587,45.707z M25.564,35.365
			c-0.676,0-1.339,0.146-1.96,0.434c-2.312,1.08-3.311,3.849-2.229,6.172c0.756,1.628,2.409,2.676,4.212,2.676
			c0.673,0,1.33-0.143,1.944-0.433c2.317-1.081,3.331-3.847,2.253-6.164C29.025,36.42,27.37,35.365,25.564,35.365z"/>
	</g>
	<g>
		<path fill="#292929" d="M43.361,35.384c-0.224,0-0.447-0.042-0.655-0.122l-1.246-0.471c-0.872-0.325-1.362-1.252-1.138-2.159
			l0.124-0.479c-0.412-0.315-0.79-0.664-1.138-1.054l-0.448,0.148c-0.88,0.267-1.869-0.166-2.234-0.997l-0.548-1.205
			c-0.391-0.856-0.085-1.863,0.73-2.35l0.402-0.242c-0.053-0.497-0.07-0.996-0.037-1.495l-0.396-0.207
			c-0.831-0.416-1.207-1.403-0.866-2.284l0.456-1.238c0.325-0.872,1.27-1.368,2.177-1.129l0.473,0.116
			c0.283-0.357,0.606-0.698,0.947-1.002l-0.15-0.476c-0.283-0.902,0.148-1.86,1.008-2.234l1.203-0.551
			c0.823-0.383,1.878-0.049,2.335,0.737l0.267,0.445c0.477-0.059,0.955-0.076,1.418-0.042l0.26-0.499
			c0.416-0.808,1.421-1.196,2.276-0.88l1.246,0.473c0.862,0.316,1.362,1.246,1.146,2.156l-0.149,0.583
			c0.374,0.3,0.72,0.631,1.038,0.997l0.574-0.183c0.838-0.291,1.859,0.149,2.236,0.994l0.545,1.208
			c0.383,0.847,0.076,1.852-0.722,2.333l-0.576,0.341c0.044,0.424,0.053,0.857,0.032,1.312l0.563,0.29
			c0.825,0.43,1.2,1.412,0.883,2.285l-0.468,1.237c-0.278,0.731-0.953,1.196-1.725,1.196l0,0c-0.148,0-0.303-0.017-0.45-0.058
			l-0.627-0.155c-0.251,0.323-0.532,0.628-0.841,0.912l0.193,0.606c0.283,0.889-0.143,1.854-0.998,2.242l-1.211,0.542
			c-0.799,0.373-1.87,0.048-2.335-0.732l-0.288-0.485c-0.459,0.061-0.924,0.083-1.395,0.067l-0.256,0.503
			C44.685,34.997,44.059,35.384,43.361,35.384z M39.666,29.869l0.23,0.276c0.426,0.521,0.916,0.977,1.455,1.357l0.305,0.209
			l-0.305,1.18c-0.091,0.375,0.117,0.763,0.482,0.907l1.246,0.473c0.371,0.133,0.797-0.026,0.963-0.375l0.582-1.129l0.354,0.029
			c0.627,0.045,1.246,0.021,1.848-0.088l0.365-0.066l0.657,1.112c0.194,0.325,0.636,0.465,0.987,0.305l1.211-0.545
			c0.36-0.163,0.544-0.567,0.418-0.947l-0.405-1.278l0.272-0.23c0.441-0.368,0.83-0.786,1.148-1.24l0.211-0.299l1.319,0.332
			c0.066,0.018,0.134,0.026,0.196,0.026h0.004c0.32,0,0.608-0.2,0.728-0.506l0.462-1.229c0.137-0.374-0.021-0.797-0.371-0.976
			l-1.195-0.611l0.031-0.357c0.059-0.631,0.041-1.212-0.049-1.77l-0.057-0.355l1.184-0.703c0.333-0.203,0.466-0.625,0.3-0.982
			L53.7,21.174c-0.155-0.357-0.57-0.546-0.936-0.419l-1.271,0.402l-0.23-0.283c-0.396-0.498-0.856-0.938-1.361-1.312l-0.284-0.207
			l0.318-1.264c0.094-0.387-0.109-0.772-0.485-0.905l-1.246-0.474c-0.366-0.133-0.781,0.028-0.961,0.375l-0.593,1.132l-0.357-0.036
			c-0.606-0.066-1.237-0.041-1.858,0.05l-0.353,0.058l-0.638-1.057c-0.199-0.34-0.64-0.474-0.986-0.316l-1.207,0.552
			c-0.365,0.163-0.548,0.563-0.426,0.944l0.368,1.162l-0.282,0.23c-0.466,0.377-0.897,0.833-1.254,1.324l-0.217,0.291l-1.156-0.291
			c-0.428-0.099-0.787,0.105-0.917,0.47l-0.46,1.247c-0.148,0.371,0.012,0.784,0.359,0.958l1.039,0.548l-0.042,0.359
			c-0.066,0.645-0.056,1.295,0.05,1.941l0.056,0.357l-1.021,0.599c-0.339,0.207-0.471,0.631-0.305,0.991l0.556,1.212
			c0.153,0.354,0.571,0.542,0.929,0.421L39.666,29.869z M45.563,29.46c-1.554,0-2.982-0.921-3.63-2.341
			c-0.438-0.964-0.474-2.042-0.094-3.041c0.376-0.997,1.115-1.781,2.087-2.217c0.515-0.233,1.063-0.357,1.628-0.357
			c1.553,0,2.982,0.921,3.639,2.338c0.896,2.005,0,4.363-1.994,5.266C46.678,29.344,46.127,29.46,45.563,29.46z M45.554,22.567
			c-0.415,0-0.814,0.091-1.189,0.264c-0.713,0.318-1.261,0.897-1.535,1.627c-0.273,0.726-0.249,1.515,0.075,2.22
			c0.647,1.42,2.425,2.101,3.854,1.461c1.461-0.664,2.117-2.393,1.461-3.859C47.742,23.247,46.693,22.567,45.554,22.567z"/>
	</g>
	<g>
		<path fill="#292929" d="M32.962,65.825L32.962,65.825c-12.77,0-24.497-7.459-29.879-19c-7.672-16.45-0.529-36.069,15.918-43.744
			C23.386,1.039,28.054,0,32.863,0C45.629,0,57.36,7.459,62.742,19.003c7.673,16.451,0.529,36.072-15.92,43.739
			C42.437,64.792,37.771,65.825,32.962,65.825z M32.863,1.063c-4.656,0-9.17,1.004-13.415,2.981
			C3.534,11.471-3.377,30.459,4.047,46.375c5.205,11.169,16.557,18.387,28.916,18.387c4.651,0,9.164-0.998,13.412-2.981
			c15.916-7.418,22.827-26.409,15.404-42.328C56.568,8.281,45.222,1.063,32.863,1.063z"/>
	</g>
</g>
</svg>
