<?xml version="1.0" encoding="utf-8"?>
<!-- Generator: Adobe Illustrator 16.0.0, SVG Export Plug-In . SVG Version: 6.00 Build 0)  -->
<!DOCTYPE svg PUBLIC "-//W3C//DTD SVG 1.1//EN" "http://www.w3.org/Graphics/SVG/1.1/DTD/svg11.dtd">
<svg version="1.1" id="Layer_1" xmlns="http://www.w3.org/2000/svg" xmlns:xlink="http://www.w3.org/1999/xlink" x="0px" y="0px"
	 width="78.459px" height="80.471px" viewBox="0 0 78.459 80.471" enable-background="new 0 0 78.459 80.471" xml:space="preserve">
<g>
	<g>
		<path fill="none" stroke="#292929" stroke-width="0.9128" stroke-miterlimit="10" d="M66.823,10.232
			c0,5.401-4.378,9.775-9.777,9.775c-5.399,0-9.774-4.376-9.774-9.775s4.375-9.776,9.774-9.776
			C62.444,0.457,66.823,4.835,66.823,10.232z"/>
		<path fill="none" stroke="#292929" stroke-width="0.9128" stroke-miterlimit="10" d="M78.002,49.582
			c0,4.31-3.494,7.802-7.805,7.802s-7.805-3.492-7.805-7.802c0-4.308,3.494-7.802,7.805-7.802
			C74.51,41.78,78.002,45.274,78.002,49.582z"/>
		<path fill="none" stroke="#292929" stroke-width="0.9128" stroke-miterlimit="10" d="M41.38,67.664
			c0,6.822-5.53,12.35-12.351,12.35c-6.821,0-12.349-5.528-12.349-12.35c0-6.82,5.528-12.352,12.349-12.352
			C35.851,55.312,41.38,60.844,41.38,67.664z"/>
		<path fill="none" stroke="#292929" stroke-width="0.9128" stroke-miterlimit="10" d="M17.595,38.314
			c0,4.733-3.836,8.57-8.569,8.57c-4.732,0-8.57-3.836-8.57-8.57s3.836-8.57,8.57-8.57C13.759,29.745,17.595,33.581,17.595,38.314z"
			/>
		<circle fill="none" stroke="#292929" stroke-width="0.9128" stroke-miterlimit="10" cx="21.128" cy="10.725" r="7.668"/>
		
			<line fill="none" stroke="#292929" stroke-width="0.9128" stroke-miterlimit="10" x1="61.368" y1="18.999" x2="67.784" y2="41.164"/>
		
			<line fill="none" stroke="#292929" stroke-width="0.9128" stroke-miterlimit="10" x1="64.046" y1="55.311" x2="42.012" y2="63.57"/>
		
			<line fill="none" stroke="#292929" stroke-width="0.9128" stroke-miterlimit="10" x1="13.462" y1="46.391" x2="19.978" y2="57.384"/>
		
			<line fill="none" stroke="#292929" stroke-width="0.9128" stroke-miterlimit="10" x1="17.595" y1="18.01" x2="11.761" y2="28.838"/>
		
			<line fill="none" stroke="#292929" stroke-width="0.9128" stroke-miterlimit="10" x1="29.688" y1="9.417" x2="46.122" y2="10.724"/>
		
			<line fill="none" stroke="#292929" stroke-width="0.9128" stroke-miterlimit="10" x1="51.618" y1="19.808" x2="33.454" y2="54.233"/>
		
			<line fill="none" stroke="#292929" stroke-width="0.9128" stroke-miterlimit="10" x1="18.109" y1="37.022" x2="63.585" y2="45.448"/>
		
			<line fill="none" stroke="#292929" stroke-width="0.9128" stroke-miterlimit="10" x1="25.028" y1="17.329" x2="30.808" y2="54.233"/>
	</g>
</g>
</svg>
