<?xml version="1.0" encoding="utf-8"?>
<!-- Generator: Adobe Illustrator 16.0.0, SVG Export Plug-In . SVG Version: 6.00 Build 0)  -->
<!DOCTYPE svg PUBLIC "-//W3C//DTD SVG 1.1//EN" "http://www.w3.org/Graphics/SVG/1.1/DTD/svg11.dtd">
<svg version="1.1" id="Layer_1" xmlns="http://www.w3.org/2000/svg" xmlns:xlink="http://www.w3.org/1999/xlink" x="0px" y="0px"
	 width="57.653px" height="65.12px" viewBox="0 0 57.653 65.12" enable-background="new 0 0 57.653 65.12" xml:space="preserve">
<g>
	<path fill-rule="evenodd" clip-rule="evenodd" fill="none" stroke="#292929" stroke-miterlimit="10" d="M0.517,12.021
		c-0.079-0.367,0.125-0.5,0.439-0.621c1.555-0.602,3.1-1.229,4.652-1.839c2.965-1.163,5.935-2.316,8.9-3.479
		c1.821-0.715,3.638-1.443,5.458-2.161c2.853-1.126,5.707-2.253,8.565-3.365c0.178-0.069,0.431-0.075,0.609-0.008
		c1.439,0.546,2.87,1.114,4.301,1.68c2.542,1.005,5.081,2.02,7.626,3.021c3.89,1.529,7.785,3.048,11.676,4.574
		c1.373,0.539,2.741,1.09,4.115,1.627c0.221,0.085,0.314,0.189,0.292,0.439c-0.23,2.581-0.401,5.166-0.678,7.742
		c-0.311,2.909-0.676,5.813-1.086,8.711c-0.337,2.375-0.707,4.749-1.186,7.099c-0.562,2.762-1.203,5.511-2.136,8.185
		c-0.536,1.538-1.134,3.044-1.968,4.45c-0.734,1.236-1.749,2.241-2.84,3.16c-1.709,1.437-3.431,2.865-5.206,4.223
		c-2.029,1.551-4.103,3.049-6.196,4.517c-2.117,1.487-4.283,2.911-6.428,4.358c-0.577,0.388-0.586,0.385-1.157,0
		c-2.012-1.362-4.034-2.711-6.028-4.098c-1.837-1.277-3.662-2.574-5.461-3.901c-2.348-1.733-4.638-3.538-6.805-5.491
		c-1.603-1.446-2.759-3.166-3.567-5.146c-1.35-3.307-2.208-6.747-2.885-10.232c-0.459-2.364-0.883-4.737-1.226-7.119
		c-0.411-2.854-0.75-5.719-1.062-8.586C0.954,17.184,0.753,14.6,0.517,12.021z"/>
	<g>
		<g>
			<path fill="#292929" d="M33.843,27.637c-0.167,0-0.305-0.135-0.305-0.3v-5.229c0-2.551-2.114-4.623-4.708-4.623
				c-2.598,0-4.713,2.074-4.713,4.623v5.229c0,0.166-0.137,0.3-0.305,0.3c-0.168,0-0.306-0.135-0.306-0.3v-5.229
				c0-2.879,2.389-5.224,5.325-5.224c2.935,0,5.319,2.347,5.319,5.224v5.229C34.149,27.502,34.014,27.637,33.843,27.637z"/>
		</g>
		<g>
			<path fill="#292929" d="M37.373,27.637c-0.17,0-0.306-0.135-0.306-0.3v-5.229c0-4.458-3.695-8.084-8.237-8.084
				c-4.542,0-8.237,3.625-8.237,8.084v5.229c0,0.166-0.139,0.3-0.306,0.3c-0.17,0-0.307-0.135-0.307-0.3v-5.229
				c0-4.789,3.968-8.684,8.85-8.684c4.878,0,8.849,3.896,8.849,8.684v5.229C37.679,27.502,37.54,27.637,37.373,27.637z"/>
		</g>
		<g>
			<path fill="#292929" d="M37.867,47.652H19.79c-2.39,0-4.332-1.905-4.332-4.247V32.314c0-2.344,1.942-4.251,4.332-4.251h18.078
				c2.386,0,4.329,1.907,4.329,4.251v11.091C42.196,45.747,40.253,47.652,37.867,47.652z M19.79,28.664
				c-2.05,0-3.72,1.637-3.72,3.65v11.091c0,2.011,1.669,3.648,3.72,3.648h18.078c2.047,0,3.717-1.637,3.717-3.648V32.314
				c0-2.013-1.67-3.65-3.717-3.65H19.79z M28.83,44.189c-1.067,0-1.935-0.849-1.935-1.896v-3.255
				c-0.718-0.573-1.13-1.398-1.13-2.289c0-1.657,1.375-3.007,3.065-3.007c1.688,0,3.062,1.35,3.062,3.007
				c0,0.891-0.409,1.716-1.131,2.289v3.255C30.76,43.34,29.896,44.189,28.83,44.189z M28.83,34.343
				c-1.353,0-2.453,1.078-2.453,2.405c0,0.746,0.367,1.441,1.003,1.899c0.082,0.057,0.125,0.146,0.125,0.24v3.407
				c0,0.715,0.594,1.295,1.323,1.295c0.727,0,1.32-0.582,1.32-1.295v-3.407c0-0.093,0.044-0.183,0.124-0.24
				c0.641-0.458,1.006-1.153,1.006-1.899C31.279,35.421,30.179,34.343,28.83,34.343z"/>
		</g>
	</g>
</g>
</svg>
