<?xml version="1.0" encoding="utf-8"?>
<!-- Generator: Adobe Illustrator 16.0.0, SVG Export Plug-In . SVG Version: 6.00 Build 0)  -->
<!DOCTYPE svg PUBLIC "-//W3C//DTD SVG 1.1//EN" "http://www.w3.org/Graphics/SVG/1.1/DTD/svg11.dtd">
<svg version="1.1" id="Layer_1" xmlns="http://www.w3.org/2000/svg" xmlns:xlink="http://www.w3.org/1999/xlink" x="0px" y="0px"
	 width="67.17px" height="71.029px" viewBox="0 0 67.17 71.029" enable-background="new 0 0 67.17 71.029" xml:space="preserve">
<g>
	<g>
		<g>
			<g>
				<path fill="none" stroke="#292929" stroke-miterlimit="10" d="M33.158,3.902c0,1.874-1.524,3.401-3.41,3.401
					c-1.881,0-3.411-1.523-3.411-3.401c0-1.879,1.531-3.402,3.411-3.402C31.632,0.5,33.158,2.022,33.158,3.902z"/>
				<path fill="none" stroke="#292929" stroke-miterlimit="10" d="M29.796,8.051c-8.716,0.069-5.897,7.881-5.897,7.881
					s0.955,0.544,4.486,0.646l2.752-0.008c3.682-0.119,4.467-0.638,4.467-0.638S38.379,7.986,29.796,8.051z"/>
				<path fill="none" stroke="#292929" stroke-miterlimit="10" d="M30.74,9.537l-0.451,0.199l-1.11-0.098
					c0,0-0.295-0.928-0.044-1.217c0.252-0.292,1.25-0.292,1.25-0.292s0.457,0.505,0.408,0.956C30.74,9.537,30.74,9.537,30.74,9.537z
					"/>
			</g>
		</g>
		<g>
			<g>
				<path fill="none" stroke="#292929" stroke-miterlimit="10" d="M57.839,9.859c0,2.142-1.74,3.88-3.895,3.88
					c-2.151,0-3.897-1.739-3.897-3.88c0-2.15,1.747-3.887,3.897-3.887C56.099,5.972,57.839,7.711,57.839,9.859z"/>
				<path fill="none" stroke="#292929" stroke-miterlimit="10" d="M54.001,14.599c-9.964,0.078-6.74,9.005-6.74,9.005
					s1.091,0.623,5.127,0.739l3.145-0.008c4.208-0.134,5.102-0.731,5.102-0.731S63.808,14.521,54.001,14.599z"/>
				<path fill="none" stroke="#292929" stroke-miterlimit="10" d="M55.08,16.296l-0.516,0.229l-1.267-0.115
					c0,0-0.343-1.061-0.052-1.39c0.285-0.334,1.427-0.334,1.427-0.334s0.523,0.576,0.466,1.091
					C55.08,16.296,55.08,16.296,55.08,16.296z"/>
			</g>
		</g>
		<path fill="none" stroke="#292929" stroke-miterlimit="10" d="M40.9,34.913c0,3.209-2.6,5.813-5.813,5.813
			c-3.207,0-5.809-2.604-5.809-5.813c0-3.21,2.603-5.809,5.809-5.809C38.3,29.103,40.9,31.703,40.9,34.913z"/>
		<g>
			<g>
				<path fill="none" stroke="#292929" stroke-miterlimit="10" d="M63.898,40.82c0,1.81-1.474,3.278-3.292,3.278
					c-1.815,0-3.289-1.469-3.289-3.278c0-1.814,1.474-3.283,3.289-3.283C62.425,37.537,63.898,39.006,63.898,40.82z"/>
				<path fill="none" stroke="#292929" stroke-miterlimit="10" d="M60.655,44.823c-8.412,0.064-5.693,7.604-5.693,7.604
					s0.922,0.522,4.329,0.624l2.654-0.008c3.556-0.114,4.312-0.616,4.312-0.616S68.936,44.757,60.655,44.823z"/>
				<path fill="none" stroke="#292929" stroke-miterlimit="10" d="M61.567,46.254l-0.438,0.193l-1.073-0.097
					c0,0-0.285-0.894-0.041-1.172c0.241-0.281,1.204-0.281,1.204-0.281s0.442,0.483,0.394,0.919
					C61.567,46.254,61.567,46.254,61.567,46.254z"/>
			</g>
		</g>
		<g>
			<g>
				<path fill="none" stroke="#292929" stroke-miterlimit="10" d="M12.128,30.75c0,2.253-1.83,4.075-4.091,4.075
					c-2.259,0-4.094-1.823-4.094-4.075c0-2.256,1.834-4.083,4.094-4.083C10.298,26.667,12.128,28.494,12.128,30.75z"/>
				<path fill="none" stroke="#292929" stroke-miterlimit="10" d="M8.098,35.727c-10.459,0.082-7.076,9.457-7.076,9.457
					s1.143,0.649,5.382,0.778l3.301-0.011c4.419-0.141,5.358-0.765,5.358-0.765S18.397,35.648,8.098,35.727z"/>
				<path fill="none" stroke="#292929" stroke-miterlimit="10" d="M9.228,37.511l-0.541,0.238L7.355,37.63
					c0,0-0.357-1.113-0.052-1.461c0.299-0.349,1.5-0.349,1.5-0.349s0.546,0.604,0.488,1.144C9.228,37.511,9.228,37.511,9.228,37.511
					z"/>
			</g>
		</g>
		<g>
			<g>
				<path fill="none" stroke="#292929" stroke-miterlimit="10" d="M34.656,55.891c0,2.168-1.762,3.923-3.939,3.923
					c-2.173,0-3.937-1.758-3.937-3.923c0-2.172,1.764-3.926,3.937-3.926C32.895,51.965,34.656,53.719,34.656,55.891z"/>
				<path fill="none" stroke="#292929" stroke-miterlimit="10" d="M30.774,60.682c-10.066,0.077-6.807,9.103-6.807,9.103
					s1.099,0.625,5.179,0.745l3.177-0.01c4.252-0.139,5.157-0.735,5.157-0.735S40.687,60.605,30.774,60.682z"/>
				<path fill="none" stroke="#292929" stroke-miterlimit="10" d="M31.866,62.397l-0.522,0.229l-1.28-0.114
					c0,0-0.345-1.073-0.052-1.407c0.288-0.334,1.44-0.334,1.44-0.334s0.53,0.579,0.473,1.102
					C31.866,62.397,31.866,62.397,31.866,62.397z"/>
			</g>
		</g>
		<g>
			<g>
				
					<line fill="none" stroke="#292929" stroke-width="0.9834" stroke-miterlimit="10" x1="48.18" y1="25.348" x2="44.112" y2="28.947"/>
				<g>
					<polygon fill="#FFFFFF" stroke="#292929" stroke-miterlimit="10" points="47.149,31.576 41.874,25.611 41.529,31.231 					"/>
				</g>
			</g>
		</g>
		<g>
			<g>
				
					<line fill="none" stroke="#292929" stroke-width="0.9834" stroke-miterlimit="10" x1="30.698" y1="17.922" x2="32.414" y2="24.725"/>
				<g>
					<polygon fill="#FFFFFF" stroke="#292929" stroke-miterlimit="10" points="36.145,23.234 28.421,25.181 33.258,28.067 					"/>
				</g>
			</g>
		</g>
		<g>
			<g>
				
					<line fill="none" stroke="#292929" stroke-width="0.9834" stroke-miterlimit="10" x1="17.224" y1="38.133" x2="24.298" y2="36.793"/>
				<g>
					<polygon fill="#FFFFFF" stroke="#292929" stroke-miterlimit="10" points="23.034,32.979 24.515,40.805 27.687,36.151 					"/>
				</g>
			</g>
		</g>
		<g>
			<g>
				
					<line fill="none" stroke="#292929" stroke-width="0.9834" stroke-miterlimit="10" x1="32.548" y1="50.154" x2="33.914" y2="45.284"/>
				<g>
					<polygon fill="#FFFFFF" stroke="#292929" stroke-miterlimit="10" points="29.935,44.723 37.603,46.874 34.843,41.965 					"/>
				</g>
			</g>
		</g>
		<g>
			<g>
				
					<line fill="none" stroke="#292929" stroke-width="0.9834" stroke-miterlimit="10" x1="53.946" y1="44.896" x2="44.906" y2="40.554"/>
				<g>
					<polygon fill="#FFFFFF" stroke="#292929" stroke-miterlimit="10" points="43.661,44.375 47.112,37.195 41.798,39.06 					"/>
				</g>
			</g>
		</g>
	</g>
</g>
</svg>
